/* XPM */
static char *b62fc62354a741bed35a3370acfa7e91SSEV4488v0MKdMWL[] = {
/* columns rows colors chars-per-pixel */
"64 64 125 2 ",
"   c None",
".  c #2C2AAB",
"X  c #2F32A0",
"o  c #3332BA",
"O  c #3F3EBE",
"+  c #4D4B98",
"@  c #5F5DAF",
"#  c #4A4CB4",
"$  c #4143BC",
"%  c #4945BF",
"&  c #4D4BBE",
"*  c #5456B3",
"=  c #5B5FB7",
"-  c #5558BE",
";  c #5D5FBD",
":  c #6A66BA",
">  c #7475BD",
",  c #7779BE",
"<  c #2B2CC4",
"1  c #2D2DC9",
"2  c #3632C0",
"3  c #3D3CC6",
"4  c #3432CB",
"5  c #3935CC",
"6  c #3C3CCF",
"7  c #2524D5",
"8  c #2D2BD1",
"9  c #2421DD",
"0  c #2C2BDC",
"q  c #312FD3",
"w  c #322DDE",
"e  c #3235D2",
"r  c #3936D5",
"t  c #3E3ED5",
"y  c #3734D8",
"u  c #3D37D8",
"i  c #3C39DA",
"p  c #1F1DED",
"a  c #1E1EF4",
"s  c #1917F9",
"d  c #1E1EFC",
"f  c #201EEE",
"g  c #221EF5",
"h  c #211EFD",
"j  c #1E21F4",
"k  c #1E20FB",
"l  c #2421E4",
"z  c #2925E5",
"x  c #2C2BE5",
"c  c #2221ED",
"v  c #2824ED",
"b  c #2E28EB",
"n  c #312CE3",
"m  c #3430E4",
"M  c #3A34E1",
"N  c #2221F3",
"B  c #2020FE",
"V  c #423ECE",
"C  c #3F41D1",
"Z  c #4E46C1",
"A  c #4E4CC2",
"S  c #4342CC",
"D  c #5452C7",
"F  c #5C5DC4",
"G  c #5452C9",
"H  c #5D5BCD",
"J  c #4542D0",
"K  c #4946D0",
"L  c #5A57D5",
"P  c #5B5DD3",
"I  c #6261C4",
"U  c #696CC4",
"Y  c #6364C8",
"T  c #6965CA",
"R  c #6D6FC8",
"E  c #706ACE",
"W  c #7771C4",
"Q  c #7678C7",
"!  c #7A7CC4",
"~  c #7476C9",
"^  c #7D7ECC",
"/  c #6465D3",
"(  c #7575D5",
")  c #7977D2",
"_  c #7578D3",
"`  c #7D7DD3",
"'  c #7773D9",
"]  c #777BDA",
"[  c #7B7DDB",
"{  c #8A8DC2",
"}  c #8487CE",
"|  c #8A8ACF",
" . c #8386D7",
".. c #868CD1",
"X. c #888AD7",
"o. c #8384DA",
"O. c #8C8AD8",
"+. c #8B90D2",
"@. c #8E92DA",
"#. c #9496D5",
"$. c #949AD3",
"%. c #9899D7",
"&. c #9394D8",
"*. c #9DA2D6",
"=. c #A4A2C4",
"-. c #AEABDC",
";. c #B5BDDB",
":. c #8C8BE1",
">. c #999BE3",
",. c #A6A5E2",
"<. c #B2B5E3",
"1. c #B2B9E3",
"2. c #B8BAE0",
"3. c #B5B6EC",
"4. c #BEC2EC",
"5. c #C0C3E0",
"6. c #C9CCE7",
"7. c #C3C5EB",
"8. c #D5D7EC",
"9. c #C9C7F0",
"0. c #C8CBF1",
"q. c #CCD0F6",
"w. c #D2D1FB",
"e. c #DFE3F4",
"r. c #E1E1FA",
/* pixels */
"                                                                                                                                ",
"                                                                                                                                ",
"                                                =.    h         h k g     k 0 8.                                                ",
"                                            d h h     d         B   h       B h     V                                           ",
"                                            d *.b q   d S     +.h k B     3.B       h h B                                       ",
"                                L k         z k f Y   h w.      h   h     W h     g f   &.                                      ",
"                              j k d F         j       0 h d   5.N   h     g ;.    h h h     d h g                               ",
"                              0 j   g         j                                 8.h       d h   h                               ",
"                        B z     d   v c                                                   B   N x     8                         ",
"                    -.    d r   %.d k R                   ,.[ * ; @                     r.h   j     I B h                       ",
"                  :.h     9 B     N               0 k h k h B B B B h h B h #.            7.h ,     d   d X                     ",
"                ` g B       C B             O.B h B B B B B B B B B B B B B h k p                 g h g g                       ",
"                    ) j                   d d B B B B B B B B k B B B B B B B B B h l             0.d Z       d                 ",
"              x       ' k             g k B B B B B B B B B B c N B B B B B B B B B B h             d     g h d                 ",
"            g B B       *           j d B B B B B B y                     4 d B B B B B h i             j a g ,.                ",
"          g k   d q.              d d B B B B B                                 k B B B B B g           a   j h d g             ",
"            T d h g h           d B B B B B T                                     U B B B l               j > N d               ",
"                B w           g B B B B B                                                 X.B h k h         k g                 ",
"                            d j B B B B                                             g d h h B B B B         :                   ",
"                          >.h h B B B                                       t d h h B B B B B B B B                             ",
"                          k B B B B                                 o.j d k B B k B B B B B B B B ..                            ",
"                        e d B B B !                           B d d h B B B B B B B B B B B B B B   d                           ",
"                        k B B B B                     q k g h B B B B B B B B B B B B B B B B h     N t                         ",
"                      ..d B B B               ~ d h B B B B B B B B B B B B g u       k B B B h   h B k                         ",
"                      d k B B N         N d d h k B B B B B B B B B B w               h h B B     k B B                         ",
"                      j U       4 d h h B B B B B B B B B B B N 6.                  j B B B h   = B B B 0                       ",
"                        o.d h h B B k B B B B B B B B h X.                          h B B B       B B B k                       ",
"                  j d h h B h B B B B B B B B d -                   J A           h B B B B       d B B B                       ",
"                    $ h B B B B B B B B 5                     o k g B B g y       g B B B         h B B B                       ",
"                          N B B z                           g B k B B B B 1     d B B B x         v B B B                       ",
"                                                  z g $         P k k B B <     h B B B           n B B B                       ",
"                        V k o               d g h B h d B h N       g B B     k B B B 2           m B B B                       ",
"                    j h B B x               P d B k B B B B B h     B B H   %.B B B B             l B B B                       ",
"                    z B B B k j d Z               # d d B B B h     B B     g B B B `             N B B B                       ",
"                    Y B B B B B B B k d               4.B B B B     d r.  3 B B B B               d B B B                       ",
"                      B B B B B B B B B M               B B B B     N     h B B B                 h B B k                       ",
"                      k B B B h 9.g k B B               B B B B         l B B B h                 B B B 7                       ",
"                      B B B B h   h B B B               k B B B         k k B B                 d B B B                         ",
"                      #.h B B B   k B B B               g B B B       d B B B h                 g B B B                         ",
"                        k B B B N h B B B B k E         h B B B       h B B h                 g B B B 0                         ",
"                        n B B B h k B B B B B B B h     g k B B     g k B B N                 N B h B                           ",
"                          k B B B B h h B B B B B B     h B B B ]   h B B B                 h B B h n                           ",
"                          ( B B B B B n d h B B B B     d B B B B h h h B v               g B B B h                             ",
"                            N k B B B N         K d     k h B B B B B B B               N B B B B                               ",
"                              h B B B B a               B B B B B B B B 3             d B B h h 8                               ",
"                                h B B B B k             d B B B B B B B             B B B B h h                                 ",
"                                  B B B B B h l         N B B B B B B Q         N B B B B B g                                   ",
"                                    d B B B B k d d     e B B B B B d       a h B B B B B z                                     ",
"                                      B B B B B B B B   # B B B B B     g B B B B B B B 4.                                      ",
"                                        -.k B k B B B   <.B B B B h   k B B B B B B s                                           ",
"                                            Y k B B B _   B B B B   $.h B B B B d                                               ",
"                                                  c B x   B B B h   j B h d &                                                   ",
"                                                          B B B   + 2.                                                          ",
"                                                          h h h                                                                 ",
"                                                                                                                                ",
"                                                                                                                                ",
"                                                                                                                                ",
"                                d d k /   d k k   . h d N   B   1.d d d   h     B k g     d                                     ",
"                                d #.N G   k       . b       h   ` h   {   h     g   B     h                                     ",
"                                h $.c p   d d c   N d d     h   0 h       h   ..B d h   ] h                                     ",
"                                d @.l D   d       . b       B   ^ j   d   h     h   h     g                                     ",
"                                & k k     k       . x       d     k k 5   k     k   k     k k d                                 ",
"                                                                                                                                ",
"                                                                                                                                "
};
