/* XPM */
static char *_d20b8a6e18f4010adfc240b2f002174XkwtjDMsK0ZjtR1N[] = {
/* columns rows colors chars-per-pixel */
"16 16 42 1 ",
"  c None",
". c #3B3AD9",
"X c #1E1FF4",
"o c #1D1FF6",
"O c #1D1FF8",
"+ c #1D1EF9",
"@ c #1D1FF9",
"# c #1E1FF8",
"$ c #1F1FF8",
"% c #1F1FF9",
"& c #1E1FFB",
"* c #1D1EFD",
"= c #1E1EFC",
"- c #1F1FFD",
"; c #1F1FFE",
": c #221FF2",
"> c #231EF4",
", c #211FF6",
"< c #231CF8",
"1 c #221DF9",
"2 c #201DFB",
"3 c #211EFA",
"4 c #201FFA",
"5 c #221EFB",
"6 c #201FFC",
"7 c #211EFD",
"8 c #201FFD",
"9 c #201FFE",
"0 c #1E20F3",
"q c #1F20F6",
"w c #1F20FE",
"e c #2624E7",
"r c #2A27E6",
"t c #2020FE",
"y c #4844D4",
"u c #4846D9",
"i c #4947D9",
"p c #7678CC",
"a c #6A69D8",
"s c #8D90CA",
"d c #8D8CDE",
"f c #B3B5E5",
/* pixels */
"        t       ",
"    <  92&t     ",
"  s92  t2  2i   ",
"     t2  tt  2  ",
"    t      9qu  ",
"   t   2tttwr   ",
"   fttty  p&t   ",
"        t t w   ",
"   t-  td0> t   ",
"   t-  t t  t   ",
"   9wtqtt  2q   ",
"    t- tt -&    ",
"     Xt- ta     ",
"       &        ",
"     :w> e.     ",
"                "
};
