/* XPM */
static char *_5d7f3ce0261427785d7c1943d3d1810Yfj9THbiPy5r3ch1[] = {
/* columns rows colors chars-per-pixel */
"64 64 47 1 ",
"  c None",
". c #F78C0D",
"X c #F78F12",
"o c #F79115",
"O c #F7931A",
"+ c #F79623",
"@ c #F79826",
"# c #F79A2A",
"$ c #F89B2D",
"% c #F79D33",
"& c #F89E33",
"* c #F89F3A",
"= c #F8A23B",
"- c #F8A544",
"; c #F8A748",
": c #F8A94D",
"> c #F9AD54",
", c #F9AF58",
"< c #F9B25D",
"1 c #F9B463",
"2 c #F9B66A",
"3 c #FAB96D",
"4 c #FABB74",
"5 c #FABE7B",
"6 c #FAC17E",
"7 c #FAC383",
"8 c #FAC68B",
"9 c #FBC98E",
"0 c #FBCB94",
"q c #FBCE9B",
"w c #FBD19F",
"e c #FBD3A5",
"r c #FBD6AB",
"t c #FBD8AE",
"y c #FCDBB4",
"u c #FCDFBC",
"i c #FCE0BF",
"p c #FCE2C3",
"a c #FCE6CC",
"s c #FDEBD6",
"d c #FCEEDC",
"f c #FCF0DF",
"g c #FDEFE0",
"h c #FDF1E4",
"j c #FDF6ED",
"k c #FDF9F3",
"l c #FDFDFD",
/* pixels */
"                          OOOOOOOOOOOO                          ",
"                      OOOOOOOOOOOOOOOOOOOO                      ",
"                    OOOOOOOOOOOOOOOOOOOOOOOO                    ",
"                 OOOOOOOOOOOOOOOOOOOOOOOOOOOOOO                 ",
"                OOOOOOOOOOOOOOOOOOOOOOOOOOOOOOOO                ",
"              OOOOOOOOOOOOOOOOOOOOOOOOOOOOOOOOOOOO              ",
"             OOOOOOOOOOOOOOOOOOOOOOOOOOOOOOOOOOOOOO             ",
"           OOOOOOOOOOOOOOOOOOOOOOOooooOOOOOOOoXoOOOOO           ",
"          OOOOOOOOOOOOOOOOOOOOOOOoO:1=ooOOOOo-1=oOOOOO          ",
"         OOOOOOOOOOOOOOOOOOOOOOOo@rllh2oOOOO0klj6oOOOOO         ",
"        OOOOOOOOOOOOOOOOOOOOOOOOo9llllh=oOX3llllk:oOOOOO        ",
"       OOOOOOOOOOOOOOOOOOOOOOOOOOallllk<XOXrlllll6XOOOOOO       ",
"       OOOOOOOOOOOOOOOOOOOOOOOOOXtllllk:oOX9lllll2ooOOOOO       ",
"      OOOOOOOOOOOOOOOOOOOOOOOOOOX:hlllrOOOO&allli@OOOOOOOO      ",
"     OOOOOOOOOOOo@>2$:,=%-#1+OOOOX-qy7+oOOOX&0y8$oOOOOOOOOO     ",
"     OOOOOOOOOOOO+-:%;-#=-%;OOooOOoXXooOOOOOOXXXoOOOOOOOOOO     ",
"    OOOOOOOOOOOOO@:=&%=&*%+-*--+&>>>:OOoOOOOooooOoOoOoOoOoOO    ",
"   OOOOOOOOOOOOOo#78424244%2577=>5646$#$OOOO$$$++@#@@@++@$OOO   ",
"   OOOOOOOOOOOOOO+0rrusdddsggfffddffitrw=oOO9erisssfssuyte&oO   ",
"   OOOOOOOOOOOOOOOOO+%tlllllllllllk9=@@OOOOOOO+=9lllg4=#@+oOO   ",
"  OOOOOOOOOOOOOOOOOOO.2llllllllllleXooOOOOOOOOooXplf-XoOOOOOOO  ",
"  OOOOOOOOOOOOOOOOOOO.9llllllllllj-oOOOOOOOOOOOOXel2XOOOOOOOOO  ",
" OOOOOOOOOOOOOOOOOOOOOalklllllllleXOOOOOOOOOOOOOOppOOOOOOOOOOOO ",
" OOOOOOOOOOOOOOOOOOOo:klllllllllk>XOOOOOOOOOOOOo%s1XOOOOOOOOOOO ",
" OOOOOOOOOOOOOOOOOOOXqllllllllllpOOOOOOOOOOOOOoo1a+OOOOOOOOOOOO ",
" OOOOOOOOOOOOOOOOOOo$gllllllllll3XOOOOOOOOOOOOoXr6XOOOOOOOOOOOO ",
"OOOOOOOOOOOOOOoOooOX5llllllllllg$OOOOOOOOOOOOOo=a=oOOOOOOOOOOOOO",
"OOOOOOOOOOOOOX:ppiiugllllllllllqXOOOOOOOOOOOOOX6roOOOOOOOOOOOOOO",
"OOOOOOOOOOOOOoelllllllllllllllj;oOOOOOOOOOOOOoOi<XOOOOOOOOOOOOOO",
"OOOOOOOOOOOOo&hllllllllllllllluOOOOOOOOOOOOOOo:p+oOOOOOOOOOOOOOO",
"OOOOOOOOOOOOX5llllllllllllllll1XOOOOOOOOOOOOOXq7XOOOOOOOOOOOOOOO",
"OOOOOOOOOOOOOallllllllllllllls#oOOOOOOOOOOOOo$a=oOOOOOOOOOOOOOOO",
"OOOOOOOOOOOX>llllllllllllllll0XOOOOOOOOOOOOOX3roOOOOOOOOOOOOOOOO",
"OOOOOOOOOOOX8dsdshllllllllllj;XOOOOOOOOOOOOOot1oOOOOOOOOOOOOOOOO",
"OOOOOOOOOOOO++@++rlllllllllluoOOOOOOOOOOOOoo-p@oOOOOOOOOOOOOOOOO",
"OOOOOOOOOOOOOOoX%glllkllllll1XOOOOOOOOOOOOOX89oOOOOOOOOOOOOOOOOO",
"OOOOOOOOOOOOOOOX4lllllllllls@OOOOOOOOOOOOOO+i;oOOOOOOOOOOOOOOOOO",
"OOOOOOOOOOOOOOO+pllllllllll9XOOOOOOOOOOOOOX<roOOOOOOOOOOOOOOOOOO",
" OOOOOOOOOOOOOX:klllllllllj-oOOOOOOOOOOOOOXw1oOOOOOOOOOOOOOOOOO ",
" OOOOOOOOOOOOOXwllllllllllyOOOOOOOOOOOOOoo=i@oOOOOOOOOOOOOOOOOO ",
" OOOOOOOOOOOOO#dllllllllll1XOOOOOOOOOOOOOX76oOOOOOOOOOOOOOOOOOO ",
" OOOOOOOOOOOOX>llllllklllf#oOOOOOOOOOOOOo#y&oOOOOOOOOOOOOOOOOOO ",
"  OOOOOOOOOOOX4lllllllllleoOOOOOOOOOOOOO.69XOOOOOOOOOOOOOOOOOO  ",
"  OOOOOOOOOOOX4llllllllll1oOOOOOOOOOOOOo$i=oOOOOOOOOOOOOOOOOOO  ",
"   OOOOOOOOOOX>lklllllllj=oOOOOOOOOOOOOX07XOOOOOOOOOOOOOOOOOO   ",
"   OOOOOOOOOOo$gllllllllf$oOOOOOOOOOOOX,y+oOOOOOOOOOOOOOOOOOO   ",
"   OOOOOOOOOOOXwllllllllh$oOOOOOOOOOOo$y;XOOOOOOOOOOOOOOOOOOO   ",
"    OOOOOOOOOOX*glllllllk:oOOOOOOOOOX@e2XOOOOOOOOOOOOOOOOOOO    ",
"     OOOOOOOOOOo1jllllllleXOoOOOOOoX=i6OOOOOOOOOOOOOOOOOOOO     ",
"     OOOOOOOOOOOX1hlllllll7O.XXXXO=qf6OOOOOOOOOOOOOOOOOOOOO     ",
"      OOOOOOOOOOOo-tkllllllp6<<38ihi,oOOOOOOOOOOOOOOOOOOOO      ",
"       OOOOOOOOOOOoO:0ajjllllkjhaq,OXOOOOOOOOOOOOOOOOOOOO       ",
"       OOOOOOOOOOOOOoXO=;,1<<>-$OXooOOOOOOOOOOOOOOOOOOOOO       ",
"        OOOOOOOOOOOOOOOOXoXXXXooOOOOOOOOOOOOOOOOOOOOOOOO        ",
"         OOOOOOOOOOOOOOOOOOOOOOOOOOOOOOOOOOOOOOOOOOOOOO         ",
"          OOOOOOOOOOOOOOOOOOOOOOOOOOOOOOOOOOOOOOOOOOOO          ",
"           OOOOOOOOOOOOOOOOOOOOOOOOOOOOOOOOOOOOOOOOOO           ",
"             OOOOOOOOOOOOOOOOOOOOOOOOOOOOOOOOOOOOOO             ",
"              OOOOOOOOOOOOOOOOOOOOOOOOOOOOOOOOOOOO              ",
"                OOOOOOOOOOOOOOOOOOOOOOOOOOOOOOOO                ",
"                 OOOOOOOOOOOOOOOOOOOOOOOOOOOOOO                 ",
"                    OOOOOOOOOOOOOOOOOOOOOOOO                    ",
"                      OOOOOOOOOOOOOOOOOOOO                      ",
"                          OOOOOOOOOOOO                          "
};
