/* XPM */
static char *_8895f8e79f84feeac72cbdbb88a3942vjcq5mz9K2PVpadn[] = {
/* columns rows colors chars-per-pixel */
"16 16 82 1 ",
"  c None",
". c #F79014",
"X c #F79115",
"o c #F79116",
"O c #F79117",
"+ c #F79217",
"@ c #F79218",
"# c #F79219",
"$ c #F79319",
"% c #F7931A",
"& c #F7931B",
"* c #F7941B",
"= c #F7941C",
"- c #F7941D",
"; c #F7951E",
": c #F79620",
"> c #F79621",
", c #F79825",
"< c #F79826",
"1 c #F79927",
"2 c #F79928",
"3 c #F79B2B",
"4 c #F89B2B",
"5 c #F89C2D",
"6 c #F89C2E",
"7 c #F89C2F",
"8 c #F89D30",
"9 c #F89E32",
"0 c #F89F34",
"q c #F8A035",
"w c #F8A036",
"e c #F8A138",
"r c #F8A139",
"t c #F8A23B",
"y c #F8A33C",
"u c #F8A43E",
"i c #F8A540",
"p c #F8A642",
"a c #F8A643",
"s c #F8A746",
"d c #F8A847",
"f c #F8AA4C",
"g c #F8AB4E",
"h c #F8AD53",
"j c #F9AD53",
"k c #F9AE54",
"l c #F9AE55",
"z c #F9B059",
"x c #F9B461",
"c c #F9B563",
"v c #F9BA6E",
"b c #F9BA70",
"n c #F9BC72",
"m c #FABD76",
"M c #FABE77",
"N c #FAC07B",
"B c #FAC17D",
"V c #FAC17E",
"C c #FAC381",
"Z c #FAC483",
"A c #FAC78A",
"S c #FAC88D",
"D c #FACA8F",
"F c #FACC94",
"G c #FACC95",
"H c #FBD09E",
"J c #FBD4A4",
"K c #FBD5A7",
"L c #FBD8AD",
"P c #FCE4C7",
"I c #FCE4C8",
"U c #FCEAD5",
"Y c #FCECDA",
"T c #FCEEDD",
"R c #FCF1E3",
"E c #FDF7EF",
"W c #FDF9F4",
"Q c #FDFBF8",
"! c #FDFCFA",
"~ c #FDFDFC",
"^ c #FDFEFF",
"/ c #FDFFFF",
/* pixels */
"     %%%%%%     ",
"   %%%%%==%=%   ",
"  %%%%%%VDwLfX  ",
" %%%27<=bV8Fi%% ",
" %%%rMJHDd=rnl7 ",
"%%%%XZ~~A==,N8=%",
"%%%5hI~Ry%%7aX%%",
"%%%FQ~~K%%%i7%%%",
"@*;vT~WzX%>d=%%%",
";@@0T~I<%%00%%%%",
"@@ocQ~Z.%=i>%%%%",
" ;@fW~x.%r0%%%% ",
" @@;MUKhlu%%%%% ",
"  @=%3yr<%%%%%  ",
"   =%%X%$$%%%   ",
"     %%=$$%     "
};
