/* XPM */
static char *_e7e3b9cdbe045fcb4c99f8bb046f908yn0uX34w1mdO4Ok8[] = {
/* columns rows colors chars-per-pixel */
"32 32 130 2 ",
"   c None",
".  c #7576BB",
"X  c #7278BB",
"o  c #3536CB",
"O  c #3F3FC8",
"+  c #3B3ACE",
"@  c #3E3ECE",
"#  c #2B27D6",
"$  c #2C29D4",
"%  c #2D25DC",
"&  c #2C2ADD",
"*  c #312CD8",
"=  c #3834D3",
"-  c #3F3ED6",
";  c #3032DB",
":  c #3633DC",
">  c #3F3BD9",
",  c #1F1FF5",
"<  c #1D1EF6",
"1  c #1E1EF7",
"2  c #1D1EF8",
"3  c #1D1FF9",
"4  c #1E1EF9",
"5  c #1F1EF9",
"6  c #1E1FF9",
"7  c #1F1FF9",
"8  c #1D1EFB",
"9  c #1C1FFB",
"0  c #1F1EFA",
"q  c #1E1FFA",
"w  c #1F1FFA",
"e  c #1E1FFB",
"r  c #1F1FFB",
"t  c #1D1DFD",
"y  c #1E1CFC",
"u  c #1F1DFD",
"i  c #1C1FFC",
"p  c #1D1FFC",
"a  c #1D1EFD",
"s  c #1E1EFC",
"d  c #1F1EFC",
"f  c #1E1FFC",
"g  c #1E1EFD",
"h  c #1E1FFD",
"j  c #1F1FFD",
"k  c #1E1EFE",
"l  c #1F1EFE",
"z  c #1E1FFE",
"x  c #231FEB",
"c  c #211FEE",
"v  c #201FF5",
"b  c #221EF4",
"n  c #231EF4",
"m  c #211FF6",
"M  c #201EF7",
"N  c #231BF8",
"B  c #201EF9",
"V  c #201CFA",
"C  c #211CFB",
"Z  c #201EFA",
"A  c #201EFB",
"S  c #201FFB",
"D  c #221EFB",
"F  c #211DFC",
"G  c #201DFD",
"H  c #201EFC",
"J  c #201FFC",
"K  c #211FFC",
"L  c #201EFD",
"P  c #201FFD",
"I  c #201FFE",
"U  c #1D20F4",
"Y  c #1E21F4",
"T  c #1F20F5",
"R  c #1E20F6",
"E  c #1C20F8",
"W  c #1D20F8",
"Q  c #1D20FA",
"!  c #1D20FB",
"~  c #1F20FC",
"^  c #1F20FD",
"/  c #1F20FE",
"(  c #2525E7",
")  c #2B27E1",
"_  c #2629E5",
"`  c #2A2AE5",
"'  c #2122EA",
"]  c #2525E9",
"[  c #2625E8",
"{  c #2424EA",
"}  c #2023EC",
"|  c #2221EE",
" . c #2220EF",
".. c #2422EE",
"X. c #3132E7",
"o. c #2020F4",
"O. c #2520F6",
"+. c #2020FC",
"@. c #2020FD",
"#. c #2020FE",
"$. c #4A49CA",
"%. c #4745D6",
"&. c #4948D1",
"*. c #4F4DD2",
"=. c #4D4FD3",
"-. c #5956D5",
";. c #5956D7",
":. c #625FCE",
">. c #666ACC",
",. c #6969CE",
"<. c #716FC8",
"1. c #7879C8",
"2. c #6265D7",
"3. c #6F72D8",
"4. c #7574D2",
"5. c #7271D5",
"6. c #7378D5",
"7. c #7371DD",
"8. c #8586CF",
"9. c #898ACD",
"0. c #888ACF",
"q. c #8E90CD",
"w. c #9197C9",
"e. c #8688D7",
"r. c #8386D8",
"t. c #959AD7",
"y. c #9DA1D9",
"u. c #A0A2DD",
"i. c #A7ABDB",
"p. c #8585E0",
/* pixels */
"                                                                ",
"                      ; : 5.      e.% !                         ",
"                      Q d         w.  =.    2.                  ",
"              t.  *   O                 b 1.  _  .              ",
"            d   L d                         w >.  @             ",
"        6.    Q         D #.#.#.#.#.#.+.          ,.w           ",
"          X.        #.#.! #.#.#.L #.#.#.#.D       *.  w         ",
"      :.L         #.#.#.[             [ #.#.#.      w < D       ",
"      &.5.      #.#.Q                     !     Y     D         ",
"              #.#.Y                     D #.#.#.#.              ",
"            d #.Q               o #.#.#.d ! #.#.O.              ",
"            d #.          #.#.! #.#.#.+...[ ! D   d             ",
"          u.d     D #.#.#.#.#.d o.        #.#.$.d #.            ",
"          + #.#.#.#.#.L !                 #.d   - #.q.          ",
"            L #.w p.          #.#.#.L   #.#.      #.<           ",
"                        #.#.)     ! d   #.Q       #.d           ",
"          #.#.          D #.#.#.  #.  #.#.        #.w           ",
"          w #.! #.#.        #.#.  &   #.L       4.#.<.          ",
"          r.#.d  .#.        #.#.    #.#.        ! #.            ",
"            #.#.7.#...      #.#.  8.#.L         #.L             ",
"            D #.#.L #.#.!   #.#.  #.#.        ! #.              ",
"              #.#.'   o.d   #.#.#.#.#.      ' #.D               ",
"                #.#.L       #.#.#.#.      L #.w                 ",
"                  #.#.#.y.  #.#.#.n   i.#.#.#.                  ",
"                    L #.#.w #.#.o.  L #.#.Q                     ",
"                        d d #.#.%.#.L !                         ",
"                            N d                                 ",
"                                                                ",
"                D b . d   d   0.' D -.  d # w                   ",
"                L L > w   !   = <   `   d c d                   ",
"                Q d X         0.d d -.    $ w L                 ",
"                                                                "
};
