/* XPM */
static char *d740c13bd01f46f3cb1a86c3dac6b2d6r5rxWVIdJzztyWl5[] = {
/* columns rows colors chars-per-pixel */
"32 32 168 2 ",
"   c None",
".  c #F78E11",
"X  c #F79013",
"o  c #F79014",
"O  c #F79015",
"+  c #F79115",
"@  c #F79116",
"#  c #F79117",
"$  c #F79217",
"%  c #F79218",
"&  c #F79219",
"*  c #F79319",
"=  c #F7921A",
"-  c #F7931A",
";  c #F7931B",
":  c #F7941B",
">  c #F7941C",
",  c #F7941D",
"<  c #F7951E",
"1  c #F7951F",
"2  c #F79520",
"3  c #F79620",
"4  c #F79621",
"5  c #F79622",
"6  c #F79723",
"7  c #F79825",
"8  c #F79826",
"9  c #F79926",
"0  c #F79927",
"q  c #F79929",
"w  c #F79A29",
"e  c #F7992A",
"r  c #F79A2A",
"t  c #F79A2B",
"y  c #F79B2C",
"u  c #F79B2D",
"i  c #F89A2A",
"p  c #F89B2B",
"a  c #F89C2E",
"s  c #F89C2F",
"d  c #F89D2F",
"f  c #F89D32",
"g  c #F89E34",
"h  c #F89F34",
"j  c #F89F35",
"k  c #F8A037",
"l  c #F8A038",
"z  c #F8A139",
"x  c #F8A13A",
"c  c #F8A13B",
"v  c #F8A23A",
"b  c #F8A23B",
"n  c #F8A23C",
"m  c #F8A33E",
"M  c #F8A540",
"N  c #F8A643",
"B  c #F8A644",
"V  c #F8A645",
"C  c #F8A745",
"Z  c #F8A847",
"A  c #F8A748",
"S  c #F8A849",
"D  c #F8A949",
"F  c #F8A94C",
"G  c #F8AA4D",
"H  c #F9AB4E",
"J  c #F9AB4F",
"K  c #F9AB51",
"L  c #F8AC51",
"P  c #F9AC52",
"I  c #F9AD53",
"U  c #F9AD54",
"Y  c #F9AE54",
"T  c #F9AE55",
"R  c #F9AE56",
"E  c #F9AF57",
"W  c #F9AF59",
"Q  c #F9B05A",
"!  c #F9B15C",
"~  c #F9B25D",
"^  c #F9B15E",
"/  c #F9B25E",
"(  c #F9B35F",
")  c #F9B460",
"_  c #F9B461",
"`  c #F9B464",
"'  c #F9B564",
"]  c #F9B565",
"[  c #F9B566",
"{  c #F9B666",
"}  c #F9B768",
"|  c #FAB769",
" . c #F9B66A",
".. c #FAB76A",
"X. c #FAB869",
"o. c #FAB86A",
"O. c #F9B86C",
"+. c #FAB96D",
"@. c #F9BB73",
"#. c #F9BC73",
"$. c #FABC73",
"%. c #F9BC74",
"&. c #FABC74",
"*. c #FABD75",
"=. c #F9BD77",
"-. c #FABE76",
";. c #FABE78",
":. c #FAC07B",
">. c #FAC17F",
",. c #FAC27E",
"<. c #FAC280",
"1. c #FAC382",
"2. c #FAC485",
"3. c #FAC488",
"4. c #FAC98D",
"5. c #FAC98E",
"6. c #FBCA90",
"7. c #FBCB92",
"8. c #FACB93",
"9. c #FACC94",
"0. c #FBCD96",
"q. c #FBCD97",
"w. c #FBCF9A",
"e. c #FBD19F",
"r. c #FBD4A5",
"t. c #FBD5A7",
"y. c #FBD6AB",
"u. c #FBD7AD",
"i. c #FBD8AF",
"p. c #FBDAB2",
"a. c #FBDBB5",
"s. c #FBDCB7",
"d. c #FBDDB8",
"f. c #FCE0BF",
"g. c #FCE1C1",
"h. c #FCE4C7",
"j. c #FCE4C8",
"k. c #FCE6CC",
"l. c #FCE7CF",
"z. c #FCE8CF",
"x. c #FCEAD4",
"c. c #FCEBD7",
"v. c #FCEEDC",
"b. c #FCEEDD",
"n. c #FCEFDF",
"m. c #FCEFE0",
"M. c #FCF1E3",
"N. c #FCF1E5",
"B. c #FCF2E4",
"V. c #FCF3E7",
"C. c #FDF3E7",
"Z. c #FDF3E8",
"A. c #FDF4EB",
"S. c #FDF5EC",
"D. c #FDF6EE",
"F. c #FDF8F1",
"G. c #FDF8F3",
"H. c #FDFAF6",
"J. c #FDFBF8",
"K. c #FDFCFA",
"L. c #FDFCFB",
"P. c #FDFDFB",
"I. c #FDFDFC",
"U. c #FDFDFD",
"Y. c #FDFDFE",
"T. c #FDFEFE",
"R. c #FDFEFF",
"E. c #FDFFFF",
/* pixels */
"                        - - - - - - - -                         ",
"                  - - - - - - - - - - - * * <                   ",
"              - - - - - - - - - - - - - * * - - -               ",
"            - - - - - - - - - - - O O - * * O O - -             ",
"          - - - - - - - - - - - 6 <.q.c O 3 ;.e.m O -           ",
"        - - - - - - - - - - - O { T.T.q.X E H.T.r.- - -         ",
"      - - - - - - 3 < < > < - - K Z.L.,.O B M.T.4.O - - -       ",
"    - - - - - - 3 N m c j j 3 - < H ! 3 - - B ! 7 - - - - -     ",
"    - - - - - - 7 { ! ! W K { L W  .D a < : e i a a a g a <     ",
"  - - - - - - - 2 E O.j.N.N.Z.N.V.g.+.L 2 < H { a.n.t.{ L 6 -   ",
"  - - - - - - - - @ - s.T.T.T.T.F.E @ @ : - - O $.j.g - - * *   ",
"  - - - - - - - - - j m.T.T.T.T.p.- - - - - * O -.! O * - * *   ",
"- - - - - - - @ @ . %.T.L.T.T.J.) @ - - * < - 3 <.i - - - - - - ",
"- - - - - - - L @.@.l.T.T.L.T.l.e - - - * * O B X.O - - - - - - ",
"- - - - - - e x.T.T.T.L.L.L.T.2.@ - - - * * - +.c O - - - - - - ",
"- - - - - @ { L.T.T.T.T.T.T.Z.m @ - - - * * p -.< * - - - - - - ",
"- - - - - ; q.n.m.T.T.L.T.T.u.* - - - - * - E L O * - - - - - - ",
"- - - - - - e i 3.T.L.T.T.H.! O - - - - * * $.i * * - - - - - - ",
"- - - - - - - 3 g.T.T.L.T.k.7 - - - - - * c { O * - - - - - - - ",
"- - - - - - O K G.T.T.T.T.1.- * - - - - O ) m - < - - - - - - - ",
"  - - - - - - 7.T.T.T.T.N.m - * - - - - e  .< * - - - - - - -   ",
"  - - - - - - u.T.T.T.T.d.< * * - - - @ Q N O < - - - - - - -   ",
"  - - - - - - 9.T.T.T.T.4.O - < - - @ j X.< * * - - - - - - -   ",
"    - - - - O A D.T.T.T.9.O - * - @ 9  .a O * * - - - - - -     ",
"    - - - - - - -.D.T.T.n.B * * 7 H ,.c - - - - - - - - - -     ",
"      - - - - - - E u.n.D.x.e.5.7.:.j - - - - - - - - - -       ",
"        - - - - - O - a N S Z c 7 - O * - - - - - - - -         ",
"          - - - - - - - O - O - - - - - - - - - - - -           ",
"            - - - - - - - - - - - - - - - - - - - -             ",
"              - - - - - - - - - - - - - - - - - -               ",
"                  - - - - - - - - - - - - - -                   ",
"                        - - - - - - - -                         "
};
