/* XPM */
static char *abc04a9768d34ebdd05d09c5a15b2dd78EwFBT6SJO2PYMMl[] = {
/* columns rows colors chars-per-pixel */
"128 128 44 1 ",
"  c None",
". c #F79217",
"X c #F7931A",
"o c #F79621",
"O c #F79825",
"+ c #F79A29",
"@ c #F89C2F",
"# c #F89E33",
"$ c #F8A036",
"% c #F8A23B",
"& c #F8A644",
"* c #F8A847",
"= c #F8A94C",
"- c #F8AD54",
"; c #F9AF58",
": c #F9B15B",
"> c #F9B564",
", c #F9B768",
"< c #F9B96D",
"1 c #F9BC73",
"2 c #F9BF79",
"3 c #FAC17D",
"4 c #FAC484",
"5 c #FAC78A",
"6 c #FAC88E",
"7 c #FACB93",
"8 c #FACE9A",
"9 c #FAD09F",
"0 c #FBD2A3",
"q c #FBD6AB",
"w c #FBD8AE",
"e c #FBDAB3",
"r c #FBDEBB",
"t c #FBE2C4",
"y c #FCE6CC",
"u c #FCE7D0",
"i c #FCE9D2",
"p c #FCEDDC",
"a c #FCEFE0",
"s c #FCF1E4",
"d c #FCF4EB",
"f c #FDF7F0",
"g c #FDF9F5",
"h c #FDFDFD",
/* pixels */
"                                                        XXXXXXXXXXXXXXXX                                                        ",
"                                                  XXXXXXXXXXXXXXXXXXXXXXXXXXXX                                                  ",
"                                              XXXXXXXXXXXXXXXXXXXXXXXXXXXXXXXXXXXX                                              ",
"                                           XoXXXXXXXXXXXXXXXXXXXXXXXXXXXXXXXXXXXXXXXX                                           ",
"                                         XXXXXXXXXXXXXXXXXXXXXXXXXXXXXXXXXXXXXXXXXXXXXX                                         ",
"                                      XXXXXXXXXXXXXXXXXXXXXXXXXXXXXXXXXXXXXXXXXXXXXXXXXXXX                                      ",
"                                    XXXXXXXXXXXXXXXXXXXXXXXXXXXXXXXXXXXXXXXXXXXXXXXXXXXXXXXX                                    ",
"                                  XXXXXXXXXXXXXXXXXXXXXXXXXXXXXXXXXXXXXXoXXXXXXXXXXXXXXXXXXXXX                                  ",
"                                XXXXXXXXXXXXXXXXXXXXXXXXXXXXXXXXXXXXXXXXXXXXXXXXXXXXXXXXXXXXXXXX                                ",
"                               XXXXXXXXXXXXXXXXXXXXXXXXXXXXXXXXXXXXXXXXXXXXXXXXXXXXXXXXXXXXXXXXXXX                              ",
"                             XXXXXXXXXXXXXXXXXXXXXXXXXXXXXXXXXXXXXXXXXXXXXXXXXXXXXXXXXXXXXXXXXXXXXX                             ",
"                           XXXXXXXXXXXXXXXXXXXXXXXXXXXXXXXXXXXXXXXXXXXXXXXXXXXXXXXXXXXXXXXXXXXXXXXXXX                           ",
"                          XXXXXXXXXXXXXXXXXXXXXXXXXXXXXXXXXXXXXXXXXXXXXXXXXXXXXXXXXXXXXXXXXXXXXXXXXXXX                          ",
"                         XXXXXXXXXXXXXXXXXXXXXXXXXXXXXXXXXXXXXXXXXXXXXXXXXXXXXXXXXXXXXXXXXXXXXXXXXXXXXX                         ",
"                       XXXXXXXXXXXXXXXXXXXXXXXXXXXXXXXXXXXXXXXXXXXXXXXXXXXXXXXXXXXXXXXXXXXXXXXXXXXXXXXXXX                       ",
"                      XXXXXXXXXXXXXXXXXXXXXXXXXXXXXXXXXXXXXXXXXXXXXXXXXXXXXXXXXXXXXXXXXXXXXXXXXXXXXXXXXXXX                      ",
"                     XXXXXXXXXXXXXXXXXXXXXXXXXXXXXXXXXXXXXXXXXXXXXXXXX..X...XXXXXXXXXXXXXX..XXX.XXXXXXXXXXX                     ",
"                    XXXXXXXXXXXXXXXXXXXXXXXXXXXXXXXXXXXXXXXXXXXXXXXX.+>8q01#.XXXXXXXXXXXXX-6003&XXXXXXXXXXXX                    ",
"                   XXXXXXXXXXXXXXXXXXXXXXXXXXXXXXXXXXXXXXXXXXXXXXXXX=thhhhhi>.XXXXXXXXXX#0fhhhhs3oXXXXXXXXXXX                   ",
"                  XXXXXXXXXXXXXXXXXXXXXXXXXXXXXXXXXXXXXXXXXXXXXXXXX-ahhhhhhhd>.XXXXXXXX+ehhhhhhhg5oXXXXXXXXXXX                  ",
"                 XXXXXXXXXXXXXXXXXXXXXXXXXXXXXXXXXXXXXXXXXXXXXXXXX@thhhhhhhhhi#.XXXXXXX6hhhhhhhhhf:XXXXXXXXXXXX                 ",
"                XXXXXXXXXXXXXXXXXXXXXXXXXXXXXXXXXXXXXXXXXXXXXXXXX.<hhhhhhhhhhg1XXXXXXX$phhhhhhhhhhwXXXXXXXXXXXXX                ",
"               XXXXXXXXXXXXXXXXXXXXXXXXXXXXXXXXXXXXXXXXXXXXXXXXXXX9hhhhhhhhhhh8XXXXXX.>ghhhghhhhhhi@XXXXXXXXXXXXX               ",
"              XXXXXXXXXXXXXXXXXXXXXXXXXXXXXXXXXXXXXXXXXXXXXXXXXXXXqhhhhhhhhhhh0XXXXXX.,hhhhhhhhhhhp#XXXXXXXXXXXXXX              ",
"              XXXXXXXXXXXXXXXXXXXXXXXXXXXXXXXXXXXXXXXXXXXXXXXXXXXX7hhhhhhhhhhh7XXXXXX.-ghhhhhhhhhhi+.XXXXXXXXXXXXX              ",
"             XXXXXXXXXXXXXXXXXXXXXXXXXXXXXXXXXXXXXXXXXXXXXXXXXXXX.:ghhhhhhhhhg>XXXXXXX+ihhhhhhhhhh0XXXXXXXXXXXXXXXX             ",
"            XXXXXXXXXXXXXXXXXXXXXXXXXXXXXXXXXXXXXXXXXXXXXXXXXXXXXX+whhhhhhhhht+XXXXXXXX1ghhhhhhhhd=.XXXXXXXXXXXXXXXX            ",
"           XXXXXXXXXXXXXXXXXXXXXXXXXXXXXXXXXXXXXXXXXXXXXXXXXXXXXXXX$thhhhhhha-XXXXXXXXXo8ghhhhhhg3XXXXXXXXXXXXXXXXXXX           ",
"           XXXXXXXXXXXXXXXXXXXXXXXXXXXXXXXXXXXXXXXXXXXXXXXXXXXXXXXX.#0dhhhfr-XXXXXXXXXXXO2pghhgu,XXXXXXXXXXXXXXXXXXXX           ",
"          XXXXXXXXXXXXXXXXXXXXXXXXXXXXXoXXXXXXXXXXXXXXXXXXXXXXXXXXXXXX&<32-+.XXXXXXXXXXXXX#>32:+XXXXXXXXXXXXXXXXXXXXXX          ",
"         XXXXXXXXXXXXXXXXXXXXXXXXXXXXXXXXXXXXXXXXXXXXXXXXXXXXXXXXXXXXXX....XXXXXXXXXXXXXXXX.X..XXXXXXXXXXXXXXXXXXXXXXX          ",
"         XXXXXXXXXXXXXXXXXXXXXXXXXXXXXXXXXXXXXXXXXXXXXXXXXXXXXXXXXXXXXXXXXXXXXXXXXXXXXXXXXXXXXXXXXXXXXXXXXXXXXXXXXXXXXX         ",
"        XXXXXXXXXXXXXXXXXXXXXXXXXXXXXXXXXXXXXXXXXXXXXXXXXXXXXXXXXXXXXXXXXXXXXXXXXXXXXXXXXXXXXXXXXXXXXXXXXXXXXXXXXXXXXXXX        ",
"        XXXXXXXXXXXXXXXXXXXXXXXXXXXXXXXXXXXXXXXXXXXXXXXXXXXXXXXXXXXXXXXXXXXXXXXXXXXXXXXXXXXXXXXXXXXXXXXXXXXXXXXXXXXXXXXX        ",
"       XXXXXXXXXXXXXXXXXXXXXXXXXXXXX..XXX.X.X.XXXXXXX..XX..X.X...X.XX.XX.X.X.X..XXXXXXXXX..XXXXXX..XX..X.XXX.X....XXXXXXX       ",
"       XXXXXXXXXXXXXXXXXXXXXXXXXXXXX++++++++++++++++++++++++++++++++++++++++++++XXXXXXXXo+++++++++++++++++++++++++++XXXXX       ",
"      XXXXXXXXXXXXXXXXXXXXXXXXXXXXX+riiiiiiiiiiiuuiuiuuuiiiiiiiiiiiiiiiiiiiiipii=XXXXXXo0iipuiiiiiiiiiiiiiiiiiiiiiii:.XXXX      ",
"      XXXXXXXXXXXXXXXXXXXXXXXXXXXXX+400qetpghhhhhhhhhhhhhhhhhhhhhhhhhhhhhfpitrw0%XXXXXXX100wtudghhhhhhhhhhhhhdspitrq*XXXXX      ",
"     XXXXXXXXXXXXXXXXXXXXXXXXXXXXXXXX.XXoo@-ehhhhhhhhhhghhhhhhhhhhhhhhgt3*@ooXXXXXXXXXXXXXXXX+%>wghhhhhhhhdq<&#@+XXXXXXXXXX     ",
"     XXXXXXXXXXXXXXXXXXXXXXXXXXXXXXXXXXXXXX.$phhhhhhhhhhhhhhhhhhhhhhhg4o..XXXXXXXXXXXXXXXXXXXX..X3ghhhhhhe=X..X..XXXXXXXXXX     ",
"     XXXXXXXXXXXXXXXXXXXXXXXXXXXXXXXXXXXXXXXXehhhhhhhhhhhhhhghhhhhhhh9XXXXXXXXXXXXXXXXXXXXXXXXXXXoehhhhh9+.XXXXXXXXXXXXXXXX     ",
"    XXXXXXXXXXXXXXXXXXXXXXXXXXXXXXXXXXXXXXXXorhhhhhhhhhhhhhhhhhhhhhhp%XXXXXXXXXXXXXXXXXXXXXXXXXXX.3hhhhe+.XXXXXXXXXXXXXXXXXX    ",
"    XXXXXXXXXXXXXXXXXXXXXXXXXXXXXXXXXXXXXXX.$phhhhhhhhhhhhhhhhhhhhhh5.XXXXXXXXXXXXXXXXXXXXXXXXXXX.,hhha&.XXXXXXXXXXXXXXXXXXX    ",
"   XXXXXXXXXXXXXXXXXXXXXXXXXXXXXXXXXXXXXXXXX:ghhhhhghhhhhhhhhhhhhhhp$XXXXXXXXXXXXXXXXXXXXXXXXXXXX.<hhh4.XXXXXXXXXXXXXXXXXXXXX   ",
"   XXXXXXXXXXXXXXXXXXXXXXXXXXXXXXXXXXXXXXXXX7hhhhhhhhhhhhhhhhhhhhhh7XXXXXXXXXXXXXXXXXXXXXXXXXXXXX.6hhi@XXXXXXXXXXXXXXXXXXXXXX   ",
"   XXXXXXXXXXXXXXXXXXXXXXXXXXXXXXXXXXXXXXXX+yhhhhhhhhhhhhhhhhhhhhhd=XXXXXXXXXXXXXXXXXXXXXXXXXXXXXXehh3.XXXXXXXXXXXXXXXXXXXXXX   ",
"  XXXXXXXXXXXXXXXXXXXXXXXXXXXXXXXXXXXXXXXX.;ghhhhhhhhhhhhghhhhhhhhwXXXXXXXXXXXXXXXXXXXXXXXXXXXXXX#ahi#.XXXXXXXXXXXXXXXXXXXXXXX  ",
"  XXXXXXXXXXXXXXXXXXXXXXXXXXXXXXXXXXXXXXXXX0hhhhhhhhhhhhhhhhhhhhhg:XXXXXXXXXXXXXXXXXXXXXXXXXXXXX.:gh5.XXXXXXXXXXXXXXXXXXXXXXXX  ",
"  XXoXXXXXXXXXXXXXXXXXXXXXXXXXXXXXXXXXXXXX#phhhhhhhhhhhhhhhhhhhhht+XXXXXXXXXXXXXXXXXXXXXXXXXXXXXX8hs*XXXXXXXXXXXXXXXXXXXXXXXXX  ",
"  XXXXXXXXXXXXXXXXXXXXXXXXXXXXXXXXXXXXXXX.2hhhhhhhhhhhhhhhhhghhhh4.XXXXXXXXXXXXXXXXXXXXXXXXXXXXX+ih0XXXXXXXXXXXXXXXXXXXXXXXXXX  ",
" XXXXXXXXXXXXXXXXXXXXXXXXXXXXXXXXXXXXXXXXOthhhhhhhhhhhhhhhhhhhhhs$XXXXXXXXXXXXXXXXXXXXXXXXXXXXXX:gg;XXXXXXXXXXXXXXXXXXXXXXXXXXX ",
" XXXXXXXXXXXXXXXXXXXXXXXXXXXXXXXXXXXXXXXX-fhhhhhhhhhhhhhhhhhhhhh0XXXXXXXXXXXXXXXXXXXXXXXXXXXXXXX9ht+XXXXXXXXXXXXXXXXXXXXXXXXXXX ",
" XXXXXXXXXXXXXXXXXXXXXXXXXXXXXXXXXXXXXXXX0hhhhhhhhhhhhhhhhhhhhhf;.XXXXXXXXXXXXXXXXXXXXXXXXXXXXX#ah3.XXXXXXXXXXXXXXXXXXXXXXXXXXX ",
" XXXXXXXXXXXXXXXXXXXXXXXXXXXX...........#ahhhghhhhhhhhhhhhhhhhht+XXXXXXXXXXXXXXXXXXXXXXXXXXXXX.1hs%XXXXXXXXXXXXXXXXXXXXXXXXXXXX ",
" XXXXXXXXXXXXXXXXXXXXXXXXXXXX=7777777776whhhhhhhhhhhhhhhhhhhhhh2.XXXXXXXXXXXXXXXXXXXXXXXXXXXXXorh0XXXXXXXXXXXXXXXXXXXXXXXXXXXXX ",
" XXXXXXXXXXXXXXXXXXXXXXXXXXXXehhhhhhhhhhhhhhhhhhhhhghhhhhhhhhhp#..XXXXXXXXXXXXXXXXXXXXXXXXXXXX*dh:.XXXXXXXXXXXXXXXXXXXXXXXXXXXX ",
"XXXXXXXXXXXXXXXXXXXXXXXXoXXX*dhhhhhhhhhhhhhhhhhhhhhhhhhhhhhhhh8XXXXXXXXXXXXXXXXXXXXXXXXXXXXXX.7hyOXXXXXXXXXXXXXXXXXXXXXXXXXXXXXX",
"XXXXXXXXXXXXXXXXXXXXXXXXXXXX6hhhhhhhhhhhhhhhhhhhhhhhhhhhhhhghf-.XXXXXXXXXXXXXXXXXXXXXXXXXXXX.@ih4.XXXXXXXXXXXXXXXXXXXXXXXXXXXXXX",
"XXXXXXXXXXXXXXXXXXXXXXXXXXX+ihhhhhhhhghhhhhhhhhhhhhhhhhhhhhhhroXXXXXXXXXXXXXXXXXXXXXXXXXXXXX.>hs%XXXXXXXXXXXXXXXXXXXXXXXXXXXXXXX",
"XXXXXXXXXXXXXXXXXXXXXXXXXXX>ghhhhhhhhhhhhhhhhhhhhghhhhhhhhhhh<.XXXXXXXXXXXXXXXXXXXXXXXXXXXXXXqhqXXXXXXXXXXXXXXXXXXXXXXXXXXXXXXXX",
"XXXXXXXXXXXXXXXXXXXXXXXXXXXehhhhhhhhhhhhhhhhghhhhhhhhhhhhhhhp@.XXXXXXXXXXXXXXXXXXXXXXXXXXXXX%sh>.XXXXXXXXXXXXXXXXXXXXXXXXXXXXXXX",
"XXXXXXXXXXXXXXXXXXXXXXXXX.*dhhhhhhhhhhhhhhhhhhhhhhhhhhhhhhhh7XXXXXXXXXXXXXXXXXXXXXXXXXXXXXX.4hy+.XXXXXXXXXXXXXXXXXXXXXXXXXXXXXXX",
"XXXXXXXXXXXXXXXXXXXXXXXXXX6hhhhhhhhhhhhhhhhhhhhhhhhhhhhhhhhf=XXXXXXXXXXXXXXXXXXXXXXXXXXXXXX+th5XXXXXXXXXXXXXXXXXXXXXXXXXXXXXXXXX",
"XXXXXXXXXXXXXXXXXXXXXXXXX+uhhhhhhhhhhhhhhhhhhhhhhhhhhghhhhheoXXXXXXXXXXXXXXXXXXXXXXXXXXXXX.-fd*.XXXXXXXXXXXXXXXXXXXXXXXXXXXXXXXX",
"XXXXXXXXXXXXXXXXXXXXXXXX.>hhhhhhhhhhhhhhhhhhghhhhhhhhhhhhhg<.XXXXXXXXXXXXXXXXXXXXXXXXXXXXXX8hwoXXXXXXXXXXXXXXXXXXXXXXXXXXXXXXXXX",
"XXXXXXXXXXXXXXXXXXXXXXXXXehhhhhhhhhhhhhhhhhhhhhhhhhhhhhhhhi#XXXXXXXXXXXXXXXXXXXXXXXXXXXXXX#ph<XXXXXXXXXXXXXXXXXXXXXXXXXXXXXXXXXX",
"XXXXXXXXXXXXXXXXXXXXXXX.*dhhhhhhhhhhhhhhhhhhhhhhhhhhhghhhh7.XXXXXXXXXXXXXXXXXXXXXXXXXXXXX.1hi@XXXXXXXXXXXXXXXXXXXXXXXXXXXXXXXXXX",
"XXXXXXXXXXXXXXXXXXXXXXXX<yyyyytyyyyfhhhhhhhhhhhhhhhhhhhhhd*.XXXXXXXXXXXXXXXXXXXXXXXXXXXXXorh6XXXXXXXXXXXXXXXXXXXXXXXXXXXXXXXXXXX",
"XXXXXXXXXXXXXXXXXXXXXXXXoOOOo+o+Oo=dhhhhhhhhhhhhhhhhhhhhheXXXXXXXXXXXXXXXXXXXXXXXXXXXXXX.*df=XXXXXXXXXXXXXXXXXXXXXXXXXXXXXXXXXXX",
"XXXXXXXXXXXXXXXXXXXXXXXXXXXXXXXXX.4hhhhhhhhhhhhhhhhhhhhhh,.XXXXXXXXXXXXXXXXXXXXXXXXXXXXXX6hroXXXXXXXXXXXXXXXXXXXXXXXXXXXXXXXXXXX",
"XXXXXXXXXXXXXXXXXXXXXXXXXXXXXXXXX+yhhhhhhghhhhhhhhhhhhhhi#.XXXXXXXXXXXXXXXXXXXXXXXXXXXXX+uh<.XXXXXXXXXXXXXXXXXXXXXXXXXXXXXXXXXXX",
"XXXXXXXXXXXXXXXXXXXXXXXXXXXXXXXXX>ghhhhhhhhhhhhhhhhhhhhh6XXXXXXXXXXXXXXXXXXXXXXXXXXXXXXX>hp#.XXXXXXXXXXXXXXXXXXXXXXXXXXXXXXXXXXX",
" XXXXXXXXXXXXXXXXXXXXXXXXXXXXXXXXwhhhhhhhhhhhhhhghhhhhhd*..XXXXXXXXXXXXXXXXXXXXXXXXXXXXXwh7XXXXXXXXXXXXXXXXXXXXXXXXXXXXXXXXXXXX ",
" XXXXXXXXXXXXXXXXXXXXXXXXXXXXXXX&dhhhhhhhhhhhhhhhhhhhhheoXXXXXXXXXXXXXXXXXXXXXXXXXXXXX.&df=.XXXXXXXXXXXXXXXXXXXXXXXXXXXXXXXXXXX ",
" XXXXXXXXXXXXXXXXXXXXXXXXXXXXXXX4hhhhhhhhhhhhghhhhhhhhg,.XXXXXXXXXXXXXXXXXXXXXXXXXXXXX.4hroXXXXXXXXXXXXXXXXXXXXXXXXXXXXXXXXXXXX ",
" XXXXXXXXXXXXXXXXXXXXXXXXXXXXXX+yhhhhhhhhhhhhhhhhhhhhhi@XXXXXXXXXXXXXXXXXXXXXXXXXXXXXX+th<XXXXXXXXXXXXXXXXXXXXXXXXXXXXXXXXXXXXX ",
" XXXXXXXXXXXXXXXXXXXXXXXXXXXXXX:ghhhhhhhhhhhhhhhhhhhhh6XXXXXXXXXXXXXXXXXXXXXXXXXXXXXX.;hi#.XXXXXXXXXXXXXXXXXXXXXoXXXXXXXXXXXXXX ",
" XXXXXXXXXXXXXXXXXXXXXXXXXXXXXX0hhhhhhhhhhhhhhhhhhhhhd*.XXXXXXXXXXXXXXXXXXXXXXXXXXXXXX0h7XXXXXXXXXXXXXXXXXXXXXXXXXXXXXXXXXXXXXX ",
"  XXXXXXXXXXXXXXXXXXXXXXXXXXXX%shhhhhghhhhhhhhhhhhhhheXXXXXXXXXXXXXXXXXXXXXXXXXXXXXX.$sd&.XXXXXXXXXXXXXXXXXXXXXXXXXXXXXXXXXXXX  ",
"  XXXXXXXXXXXXXXXXXXXXXXXXXXX.3hhhhhhhhhhghhhhhhhhhhg,XXXXXXXXXXXXXXXXXXXXXXXXXXXXXX.3hqXXXXXXXXXXXXXXXXXXXXXXXXXXXXXXXXXXXXXX  ",
"  XXXXXXXXXXXXXXXXXXXXXXXXXXXorhhhhhhhhghhhhhhhhhhhhi#.XXXXXXXXXXXXXXXXXXXXXXXXXXXXX+tg:.XXXXXXXXoXXXXXXXXXXXXXXXXXXXXXXXXXXXX  ",
"  XXXXXXXXXXXXXXXXXXXXXXXXXX.*dhhhhhhhhhhhhhhhhhhhhh7.XXXXXXXXXXXXXXXXXXXXXXXXXXXXXX:htoXXXXXXXXXXXXXXXXXXXXXXXXXXXXXXXXXXXXXX  ",
"   XXXXXXXXXXXXXXXXXXXXXXXXX.3hhhhhhhhhhhhhhhhhhhhhd=.XXXXXXXXXXXXXXXXXXXXXXXXXXXXXXwh<.XXXXXXXXXXXXXXXXXXXXXXXXXXXXXXXXXXXXX   ",
"   XXXXXXXXXXXXXXXXXXXXXXXXXXqhhhhhhhhhhhhhhhhhhhhhrO.XXXXXXXXXXXXXXXXXXXXXXXXXXXX.-fi+.XXXXXXXXXXXXXXXXXXXXXXXXXXXXXXXXXXXXX   ",
"   XXXXXXXXXXXXXXXXXXXXXXXXXOthhhhhhhhhhhhhhhhhhhhh4.XXXXXXXXXXXXXXXXXXXXXXXXXXXXXXeh3.XXXXXXXXXXXXXXXXXXXXXXXXXXXXXXXXXXXXXX   ",
"    XXXXXXXXXXXXXXXXXXXXXXXXOyhhhhhghhhhhhhhhghhhhd=.XXXXXXXXXXXXXXXXXXXXXXXXXXXXX:fp#.XXXXXXXXXXXXXXXXXXXXXXXXXXXXXXXXXXXXX    ",
"    XXXXXXXXXXXXXXXXXXXXXXXXOthhhhhhhhhhhhhhhhhhhhy+XXXXXXXXXXXXXXXXXXXXXXXXXXXXX+rh4.XXXXXXXXXXXXXXXXXXXXXXXXXXXXXXXXXXXXXX    ",
"    XXXXXXXXXXXXXXXXXXXXXXXXorhhhhhhhhhhhhhhhhhhhh9XXXXXXXXXXXXXXXXXXXXXXXXXXXXX.<hi#XXXXXXXXXXXXXXXXXXXXXXXXXXXXXXXXXXXXXXX    ",
"     XXXXXXXXXXXXXXXXXXXXXXXXqhhhhhhhhhhhhhhhhhhhh1.XXXXXXXXXXXXXXXXXoXXXXXXXXXX#ih1.XXXXXXXXXXXXXXXXXXXXXXXXXXXXXXXXXXXXXX     ",
"     XXXXXXXXXXXXXXXXXXXXXXX.3hhhhhhhhhhhhhhhhhhhf=XXXXXXXXXXXXXXXXXXXXXXXXXXXXX7he+XXXXXXXXXXXXXXXXXXXXXXXXXXXXXXXXXXXXXXX     ",
"      XXXXXXXXXXXXXXXXXXXXXX.=fhhhhhhhhhhhhhhhhhhd%.XXXXXXXXXXXXXXXXXXXXXXXXXXX;fs=XXXXXXXXXXXXXXXXXXXXXXXXXXXXXXXXXXXXXXX      ",
"      XXXXXXXXXXXXXXXXXXXXXXX+yhhghhhhhhghhhhhhhhp$.XXXXXXXXXXXXXXXXXXXXXXXXX.#yh4XXXXXXXXXXXXXXXXXXXXXXXXXXXXXXXXXXXXXXXX      ",
"       XXXXXXXXXXXXXXXXXXXXXXX4hhhhhhhhhhhhhhhhhhs$.XXXXXXXXXXXXXXXXXXXXXXXXXX9he+XXXXXXXXXXXXXXXXXXXXXXXXXXXXXXXXXXXXXXX       ",
"       XXXXXXXXXXXXXXXXXXXXXX.#ahhhhhhghhhhhhhhhhd*.XXXXXXXXXXXXXXXXXXXXXXXX.1gi$.XXXXXXXXXXXXXXXXXXXXXXXXXXXXXXXXXXXXXXX       ",
"        XXXXXXXXXXXXXXXXXXXXXXX2hhhhhhhhhhhhhhhhhh>.XXXXXXXXXXXXXXXXXXXXXXX.:sd;XXXXXXXXXXXXXXXXXXXXXXXXXXXXXXXXXXXXXXXX        ",
"        XXXXXXXXXXXXXXXXXXXXXXXOehhhhhhhhhhhhhhhhh9XXXXXXXXXXXXXXXXXXXXXXXX:pg1XXXXXXXXXXXXXXXXXXXXXXXXXXXXXXXXXXXXXXXXX        ",
"         XXXXXXXXoXXXXXXXXXXXXXX%phhhhhhhhhhhhhhhhs%XXXXXXXXXXXXXXXXXXXXXX1dg4XXXXXXXXXXXXXXXXXXXXXXXXXXXXXXXXXXXXXXXXo         ",
"         XXXXXXXXXXXXXXXXXXXXXXX.-ahhhhhhhhhhhhhhhh0oXXXXXXXXXXXXXXXXX.X&qgh7OXXXXXXXXXXXXXXXXXXXXXXXXXXXXXXXXXXXXXXXXX         ",
"          XXXXXXXXXXXXXXXXXXXXXXXX:phhhhhhhhhhhhhhhg5X.XXXXXXXXXXXXX.X#4phg8+XXXXXXXXXXXXXXXXXXXXXXXXXXXXXXXXXXXXXXXXX          ",
"           XXXXXXXXXXXXXXXXXXXXXXX.*yhhhhhhhhhhhhhhhg7#..XXXXXXX...o*6phhf6oXXXXXXXXXXXXXXXXXXXXXXXXXXXXXXXXXXXXXXXXX           ",
"           XXXXXXXXXXXXXXXXXXXXXXXX.#8fhhhhhhhhhhhhhhhi3%+XXXXX+%;4rdhhhu>XXXXXXXXXXXXoXXXXXXXXXXXXXXXXXXXXXXXXXXXXXX           ",
"            XXXXXXXXXXXXXXXXXXXXXXXXXX:efhhhhhhhhhhhhhhhdye00wrisfhhhgp4#XXXXXXXXXXXXXXXXXXXXXXXXXXXXXXXXXXXXXXXXXXX            ",
"             XXXXXXXXXXXXXXXXXXXXXXXXX.o;0phhhhhhhhhhhhhhhhhhhhhhhhdr1#X.XXXXXXXXXXXXXXXXXXXXXXXXXXXXXXXXXXXXXXXXXX             ",
"              XXXXXXXXXXXXXXXXXXXXXXXXXX.X$>8tsghhhhhhhhhhhhhhfat9<&o.XXXXXXXXXXXXXXXXXXXXXXXXXXXXXXXXXXXXXXXXXXXX              ",
"              XXXXXXXXXXXXXXXXXXXXXXXXXXXX..Xo%-,470qwwwq0852>*#+X..XXXXXXXXXXXXXXXXXXXXXXXXXXXXXXXXXXXXXXXXXXXXXX              ",
"               XXXXXXXXXXXXXXXXXXXXXXXXXXXXXXX.X..X.XXXXXX....XXXXXXXXXXXXXXXXXXXXXXXXXXXXXXXXXXXXXXXXXXXXXXXXXXX               ",
"                XXXXXXXXXXXXXXXXXXXXXXXXXXXXXXXXXXXXXXXXXXXXXXXXXXXXXXXXXXXXXXXXXXXXXXXXXXXXXXXXXXXXXXXXXXXXXXXX                ",
"                 XXXXXXXXXXXXXXXXXXXXXXXXXXXXXXXXXXXXXXXXXXXXXXXXXXXXXXXXXXXXXXXXXXXXXXXXXXXXXXXXXXXXXXXXXXXXXX                 ",
"                  XXXXXXXXXXXXXXXXXXXXXXXXXXXXXXXXXXXXXXXXXXXXXXXXXXXXXXXXXXXXXXXXXXXXXXXXXXXXXXXXXXXXXXXXXXXX                  ",
"                   XXXXXXXXXXXXXXXXXXXXXXXXXXXXXXXXXXXXXXXXXXXXXXXXXXXXXXXXXXXXXXXXXXXXXXXXXXXXXXXXXXXXXXXXXX                   ",
"                    XXXXXXXXXXXXXXXXXXXXXXXXXXXXXXXXXXXXXXXXXXXXXXXXXXXXXXXXXXXXXXXXXXXXXXXXXXXXXXXXXXXXXXXX                    ",
"                     XXXXXXXXXXXXXXXXXXXXXXXXXXXXXXXXXXXXXXXXXXXXXXXXXXXXXXXXXXXXXXXXXXXXXXXXXXXXXXXXXXXXXX                     ",
"                      XXXXXXXXXXXXXXXXXXXXXXXXXXXXXXXXXXXXXXXXXXXXXXXXXXXXXXXXXXXXXXXXXXXXXXXXXXXXXXXXXXXX                      ",
"                       XXXXXXXXXXXXXXoXXXXXXXXXXXXXXXXXXXXXXXXXXXXXXXXXXXXXXXXXXXXXXXXXXXXXXXXXXXXXXXXXXX                       ",
"                         XXXXXXXXXXXXXXXXXXXXXXXXXXXXXXXXXXXXXXXXXXXXXXXXXXXXXXXXXXXXXXXXXXXXXXXXXXXXXX                         ",
"                          XXXXXXXXXXXXXXXXXXXXXXXXXXXXXXXXXXXXXXXXXXXXXXXXXXXXXXXXXXXXXXXXXXXXXXXXXXXX                          ",
"                           XXXXXXXXXXXXXXXXXXXXXXXXXXXXXXXXXXXXXXXXXXXXXXXXXXXXXXXXXXXXXXXXXXXXXXXXXX                           ",
"                             XXXXXXXXXXXXXXXXXXXXXXXXXXXXXXXXXXXXXXXXXXXXXXXXXXXXXXXXXXXXXXXXXXXXXX                             ",
"                              XXXXXXXXXXXXXXXXXXXXXXXXXXXXXXXXXXXXXXXXXXXXXXXXXXXXXXXXXXXXXXXXXXX                               ",
"                                XXXXXXXXXXXXXXXXXXXXXXXXXXXXXXXXXXXXXXXXXXXXXXXXXXXXXXXXXXXXXXXX                                ",
"                                  XXXXXXXXXXXXXXXXXXXXXXXXXXXXXXXXXXXXXXXXXXXXXXXXXXXXXXXXXXXX                                  ",
"                                    XXXXXXXXXXXXXXXXXXXXXXXXXXXXXXXXXXXXXXXXXXXXXXXXXXXXXXXX                                    ",
"                                      XXXXXXXXXXXXXXXXXXXXXXXXXXXXXXXXXXXXXXXXXXXXXXXXXXXX                                      ",
"                                        XXXXXXXXXXXXXXXXXXXXXXXXXXXXXXXXXXXXXXXXXXXXXXX                                         ",
"                                           XXXXXXXXXXXXXXXXXXXXXXXXXXXXXXXXXXXXXXXXXX                                           ",
"                                              XXXXXXXXXXXXXXXXXXXXXXXXXXXXXXXXXXXX                                              ",
"                                                  XXXXXXXXXXXXXXXXXXXXXXXXXXXX                                                  ",
"                                                        XXXXXXXXXXXXXXXX                                                        "
};
